<mxfile host="app.diagrams.net" modified="2021-01-28T10:31:31.083Z" agent="5.0 (Macintosh; Intel Mac OS X 10_15_4) AppleWebKit/537.36 (KHTML, like Gecko) Chrome/88.0.4324.96 Safari/537.36" etag="mAYlfmZOJdGEvkYAVL3v" version="14.2.7" type="github">
  <diagram id="BteJaRjrGY8pQmkDP-u3" name="Page-1">
    <mxGraphModel dx="1009" dy="949" grid="1" gridSize="10" guides="1" tooltips="1" connect="1" arrows="1" fold="1" page="1" pageScale="1" pageWidth="827" pageHeight="1169" math="0" shadow="0">
      <root>
        <mxCell id="0" />
        <mxCell id="1" parent="0" />
        <mxCell id="PFRx2vC5VvQPe2DPOIoe-2" value="&lt;pre style=&quot;margin-top: 0px ; margin-bottom: 0px ; color: rgb(23 , 43 , 77) ; font-size: 14px ; text-align: left&quot;&gt;{&lt;br/&gt; &quot;root&quot; : {&lt;br/&gt;  &quot;id&quot; : &quot;bbshome:topicSquare&quot;,&lt;br/&gt;  &quot;name&quot; : &quot;&quot;,&lt;br/&gt;  &quot;pageId&quot; : &quot;bbs_home_43a28f1e8420cef0957baee899649750&quot;&lt;br/&gt; },&lt;br/&gt; &quot;id&quot; : &quot;topicList:list:2&quot;,&lt;br/&gt; &quot;name&quot; : &quot;&quot;,&lt;br/&gt; &quot;pageId&quot; : &quot;topicList_a12e292c2a22886d6ab79c2019706680&quot;,&lt;br/&gt; &quot;parent&quot; : {&lt;br/&gt;  &quot;id&quot; : &quot;topicSquare:list:2&quot;,&lt;br/&gt;  &quot;name&quot; : &quot;&quot;,&lt;br/&gt;  &quot;pageId&quot; : &quot;topicSquare_a462b72ae30fc3b5462f988c7afef4a4&quot;&lt;br/&gt; }&lt;br/&gt;}&lt;/pre&gt;" style="rounded=0;whiteSpace=wrap;html=1;" vertex="1" parent="1">
          <mxGeometry x="60" y="100" width="520" height="300" as="geometry" />
        </mxCell>
        <mxCell id="PFRx2vC5VvQPe2DPOIoe-5" value="当前PTI" style="text;html=1;strokeColor=none;fillColor=none;align=center;verticalAlign=middle;whiteSpace=wrap;rounded=0;" vertex="1" parent="1">
          <mxGeometry x="60" y="80" width="60" height="20" as="geometry" />
        </mxCell>
        <mxCell id="PFRx2vC5VvQPe2DPOIoe-6" value="&lt;pre style=&quot;margin-top: 0px ; margin-bottom: 0px ; font-size: 14px ; text-align: left&quot;&gt;&lt;pre style=&quot;color: rgb(23 , 43 , 77) ; margin-top: 0px ; margin-bottom: 0px&quot;&gt;{&lt;br&gt; &quot;root&quot; : {&lt;br&gt;  &quot;id&quot; : &quot;bbshome:topicSquare&quot;,&lt;br&gt;  &quot;name&quot; : &quot;&quot;,&lt;br&gt;  &quot;pageId&quot; : &quot;bbs_home_43a28f1e8420cef0957baee899649750&quot;,&lt;/pre&gt;&lt;pre style=&quot;margin-top: 0px ; margin-bottom: 0px&quot;&gt;&lt;font color=&quot;#172b4d&quot;&gt;  &lt;/font&gt;&lt;font color=&quot;#cc0000&quot;&gt;&quot;biz&quot; : &quot;$(biz)&quot;&lt;/font&gt;&lt;font color=&quot;#172b4d&quot;&gt;,&lt;br&gt; },&lt;br&gt; &quot;id&quot; : &quot;topicList:list:2&quot;,&lt;br&gt; &quot;name&quot; : &quot;&quot;,&lt;br&gt; &quot;pageId&quot; : &quot;topicList_a12e292c2a22886d6ab79c2019706680&quot;,&lt;/font&gt;&lt;/pre&gt;&lt;pre style=&quot;margin-top: 0px ; margin-bottom: 0px&quot;&gt;&lt;span style=&quot;color: rgb(23 , 43 , 77)&quot;&gt; &lt;/span&gt;&lt;font color=&quot;#ff0000&quot;&gt;&quot;biz&quot; : &quot;$(biz)&quot;,&lt;/font&gt;&lt;font color=&quot;#172b4d&quot;&gt;&lt;br&gt; &quot;parent&quot; : {&lt;br&gt;  &quot;id&quot; : &quot;topicSquare:list:2&quot;,&lt;br&gt;  &quot;name&quot; : &quot;&quot;,&lt;br&gt;  &quot;pageId&quot; : &quot;topicSquare_a462b72ae30fc3b5462f988c7afef4a4&quot;,&lt;/font&gt;&lt;/pre&gt;&lt;pre style=&quot;margin-top: 0px ; margin-bottom: 0px&quot;&gt;&lt;span style=&quot;color: rgb(23 , 43 , 77)&quot;&gt;  &lt;/span&gt;&lt;font color=&quot;#ff0000&quot;&gt;&quot;biz&quot; : &quot;$(biz)&quot;,&lt;/font&gt;&lt;font color=&quot;#172b4d&quot;&gt;&lt;br&gt;&lt;/font&gt;&lt;/pre&gt;&lt;pre style=&quot;color: rgb(23 , 43 , 77) ; margin-top: 0px ; margin-bottom: 0px&quot;&gt; }&lt;br&gt;}&lt;/pre&gt;&lt;/pre&gt;" style="rounded=0;whiteSpace=wrap;html=1;" vertex="1" parent="1">
          <mxGeometry x="630" y="100" width="520" height="300" as="geometry" />
        </mxCell>
        <mxCell id="PFRx2vC5VvQPe2DPOIoe-7" value="目标PTI" style="text;html=1;strokeColor=none;fillColor=none;align=center;verticalAlign=middle;whiteSpace=wrap;rounded=0;" vertex="1" parent="1">
          <mxGeometry x="630" y="80" width="60" height="20" as="geometry" />
        </mxCell>
        <mxCell id="PFRx2vC5VvQPe2DPOIoe-8" value="" style="shape=singleArrow;whiteSpace=wrap;html=1;" vertex="1" parent="1">
          <mxGeometry x="580" y="210" width="50" height="60" as="geometry" />
        </mxCell>
      </root>
    </mxGraphModel>
  </diagram>
</mxfile>
